<svg xmlns="http://www.w3.org/2000/svg" xmlns:xlink="http://www.w3.org/1999/xlink" width="909" zoomAndPan="magnify" viewBox="0 0 681.75 182.249993" height="243" preserveAspectRatio="xMidYMid meet" version="1.0"><defs><g/><clipPath id="e817484b41"><path d="M 57.296875 18.246094 L 680.191406 18.246094 L 680.191406 163.25 L 57.296875 163.25 Z M 57.296875 18.246094 " clip-rule="nonzero"/></clipPath><clipPath id="45c4ff4786"><path d="M 1.273438 18.246094 L 357.535156 18.246094 L 357.535156 163.257812 L 1.273438 163.257812 Z M 1.273438 18.246094 " clip-rule="nonzero"/></clipPath><clipPath id="b0ca10912b"><path d="M 1.273438 18.246094 L 356.71875 18.246094 L 356.71875 163.25 L 1.273438 163.25 Z M 1.273438 18.246094 " clip-rule="nonzero"/></clipPath></defs><g clip-path="url(#e817484b41)"><path stroke-linecap="butt" transform="matrix(2.417998, 0, 0, 2.417998, 57.296192, 18.245094)" fill="none" stroke-linejoin="miter" d="M 0.000282312 0.000413428 L 257.607858 0.000413428 L 257.607858 59.969 L 0.000282312 59.969 Z M 0.000282312 0.000413428 " stroke="#32373b" stroke-width="2.471222" stroke-opacity="1" stroke-miterlimit="4"/></g><g clip-path="url(#45c4ff4786)"><path fill="#32373b" d="M 1.273438 18.246094 L 357.574219 18.246094 L 357.574219 163.257812 L 1.273438 163.257812 Z M 1.273438 18.246094 " fill-opacity="1" fill-rule="nonzero"/></g><g clip-path="url(#b0ca10912b)"><path stroke-linecap="butt" transform="matrix(2.417998, 0, 0, 2.417998, 1.272554, 18.245632)" fill="none" stroke-linejoin="miter" d="M 0.000365374 0.000190919 L 147.328177 0.000190919 L 147.328177 59.968783 L 0.000365374 59.968783 Z M 0.000365374 0.000190919 " stroke="#32373b" stroke-width="1.853417" stroke-opacity="1" stroke-miterlimit="4"/></g><g fill="#fcfdfe" fill-opacity="1"><g transform="translate(17.565528, 103.481951)"><g><path d="M 5.15625 0 C 5 -0.265625 4.953125 -0.5625 4.90625 -0.828125 C 4.59375 -2.84375 5.15625 -4.75 5.15625 -6.75 C 5.203125 -9.796875 5.203125 -12.84375 5.203125 -15.9375 C 5.203125 -20.328125 5.203125 -24.703125 5.15625 -29.09375 C 5.15625 -30.953125 3.875 -36.203125 6.546875 -36.203125 L 55.90625 -36.046875 C 56.578125 -36.046875 57.296875 -36 57.71875 -35.484375 C 57.96875 -35.125 58.03125 -34.65625 58.03125 -34.203125 L 58.1875 -30.53125 C 58.1875 -29.921875 58.1875 -29.1875 57.671875 -28.78125 C 56.734375 -28 55.296875 -28.3125 54.203125 -28.421875 C 52.71875 -28.515625 51.171875 -28.46875 49.625 -28.46875 C 45.953125 -28.515625 42.25 -28.515625 38.578125 -28.578125 C 31.25 -28.625 23.984375 -28.625 16.71875 -28.671875 C 13.515625 -28.671875 14.4375 -25.265625 14.390625 -22.84375 C 14.34375 -22.078125 14.703125 -21.140625 15.46875 -21 C 16.609375 -20.734375 18.828125 -21.203125 20.171875 -21.203125 C 26.96875 -21.203125 33.78125 -21.25 40.59375 -21.25 C 44 -21.296875 47.40625 -21.296875 50.796875 -21.359375 C 52.765625 -21.359375 58.484375 -22.640625 58.125 -19.34375 L 57.671875 -15.0625 C 57.671875 -14.796875 57.609375 -14.546875 57.453125 -14.390625 C 57.25 -14.1875 56.9375 -14.1875 56.6875 -14.1875 C 44.515625 -14.125 32.28125 -14.125 20.171875 -14.125 C 18.921875 -14.125 17.890625 -14.078125 16.71875 -14.4375 C 15.9375 -14.640625 14.953125 -14.703125 14.546875 -14.03125 C 13.921875 -12.890625 14.234375 -11.296875 14.390625 -10.109375 C 14.546875 -8.765625 14.390625 -7.421875 16.09375 -7.421875 C 29.40625 -7.484375 42.703125 -7.53125 56.015625 -7.640625 C 58.640625 -7.640625 58.03125 -6.65625 58.03125 -4.75 C 57.96875 -3.5 58.84375 -1.5 58.125 -0.359375 C 57.359375 0.984375 56.328125 -0.046875 55.1875 -0.046875 C 53.90625 -0.046875 53.90625 -0.109375 52.5625 -0.109375 C 38.21875 -0.109375 23.875 0.265625 9.546875 -0.046875 C 8.8125 -0.109375 8.046875 -0.109375 7.328125 0.109375 C 6.65625 0.265625 5.78125 0.625 5.265625 0.109375 Z M 5.15625 0 "/></g></g></g><g fill="#fcfdfe" fill-opacity="1"><g transform="translate(77.336211, 103.481951)"><g><path d="M 56.578125 -25.0625 C 57 -25.21875 57.25 -25.6875 57.203125 -26.765625 C 57.15625 -28.625 57.046875 -30.4375 57 -32.28125 C 57 -32.703125 56.9375 -33.109375 56.78125 -33.46875 C 56.421875 -34.140625 54.984375 -34.453125 54.359375 -34.65625 C 53.53125 -34.96875 52.65625 -35.171875 51.78125 -35.4375 C 50.953125 -35.6875 50.078125 -35.796875 49.203125 -36.046875 C 46.578125 -36.671875 44 -37.1875 41.3125 -37.390625 C 40.4375 -37.5 39.5625 -37.453125 38.625 -37.5 C 37.75 -37.546875 36.875 -37.703125 35.953125 -37.703125 C 35.078125 -37.703125 34.203125 -37.59375 33.3125 -37.546875 C 26.359375 -37.234375 19.03125 -35.84375 12.890625 -32.4375 C 10.625 -31.203125 8.40625 -29.40625 6.65625 -27.546875 C 6.03125 -26.875 5.515625 -26.15625 5 -25.484375 C 3.09375 -22.640625 1.953125 -18.875 2.734375 -15.375 C 2.9375 -14.546875 3.296875 -13.71875 3.65625 -12.890625 C 6.65625 -6.1875 13.609375 -2.734375 20.265625 -0.671875 C 21.09375 -0.40625 21.921875 -0.15625 22.796875 0.046875 C 23.671875 0.265625 24.546875 0.40625 25.421875 0.5625 C 30.6875 1.59375 35.953125 1.8125 41.3125 1.34375 C 42.1875 1.234375 43.125 1.296875 44 1.1875 C 46.421875 0.828125 48.796875 0.265625 51.109375 -0.46875 C 52.453125 -0.875 55.859375 -1.390625 56.625 -2.625 C 56.78125 -2.84375 56.84375 -3.09375 56.84375 -3.359375 C 57 -5.875 57.40625 -8.875 56.9375 -11.34375 C 56.109375 -11.140625 55.390625 -10.3125 54.625 -9.796875 C 53.90625 -9.28125 53.171875 -8.71875 52.296875 -8.296875 C 46.671875 -5.359375 40.125 -4.328125 33.828125 -4.6875 C 26.828125 -5.109375 18.359375 -6.96875 14.03125 -13.046875 C 11.765625 -16.203125 11.703125 -19.90625 13.984375 -23.0625 C 20.265625 -31.921875 34.8125 -32.4375 44.359375 -30.53125 C 47.09375 -29.96875 49.875 -29.09375 52.296875 -27.796875 C 53.125 -27.34375 55.453125 -24.8125 56.578125 -25.0625 Z M 56.578125 -25.0625 "/></g></g></g><g fill="#fcfdfe" fill-opacity="1"><g transform="translate(133.548451, 103.481951)"><g><path d="M 1.703125 -18 C 1.546875 -20.578125 2.171875 -23.265625 3.921875 -25.890625 C 8.25 -32.28125 16.40625 -35.078125 23.71875 -36.515625 C 31.71875 -38.109375 40.078125 -37.96875 47.921875 -36.203125 C 54.671875 -34.71875 61.375 -31.828125 65.703125 -26.5625 C 69.984375 -21.453125 70.25 -14.640625 66.125 -9.4375 C 63.953125 -6.65625 60.859375 -4.640625 57.71875 -3.046875 C 51.109375 0.15625 43.734375 1.4375 36.3125 1.703125 C 30.171875 1.90625 23.984375 1.4375 18.15625 -0.46875 C 10.625 -2.9375 2.265625 -10.0625 1.703125 -18 Z M 11.34375 -17.953125 C 11.546875 -13.40625 15.734375 -9.28125 20.265625 -7.484375 C 28.625 -4.125 38.84375 -3.25 47.453125 -6.234375 C 54.625 -8.765625 63.75 -17.234375 56.265625 -24.546875 C 54.5625 -26.203125 52.40625 -27.34375 50.234375 -28.265625 C 40.84375 -32.078125 30.015625 -31.875 20.578125 -28.375 C 17.890625 -27.390625 15.265625 -26.046875 13.515625 -23.875 C 11.859375 -21.921875 11.296875 -19.90625 11.34375 -17.953125 Z M 11.34375 -17.953125 "/></g></g></g><g fill="#fcfdfe" fill-opacity="1"><g transform="translate(202.395734, 103.481951)"><g><path d="M 4.125 -0.109375 C 3.296875 -1.078125 3.875 -3.5 3.875 -4.796875 C 3.875 -14.34375 3.875 -23.875 3.8125 -33.46875 C 3.8125 -34.296875 3.71875 -35.53125 4.484375 -36.109375 C 5.3125 -36.671875 6.453125 -36.3125 7.328125 -36.203125 C 8.671875 -36.046875 10 -36 11.296875 -36.109375 C 11.859375 -36.15625 12.4375 -36.265625 12.953125 -36.203125 C 15.421875 -35.890625 17.953125 -33.21875 19.90625 -31.875 C 31.046875 -24.09375 42.25 -16.40625 53.4375 -8.71875 C 54 -8.296875 54.625 -7.890625 55.078125 -7.375 C 55.390625 -6.96875 56.328125 -5.78125 56.890625 -6.65625 C 57.09375 -6.90625 57.046875 -7.265625 57 -7.578125 C 56.890625 -7.890625 56.734375 -8.15625 56.6875 -8.453125 C 56.484375 -9.03125 56.484375 -9.640625 56.53125 -10.265625 C 56.78125 -17.953125 56.625 -25.6875 56.625 -33.421875 C 56.625 -35.4375 55.75 -36.71875 58.640625 -36.265625 C 60.453125 -36 62.3125 -35.953125 64.15625 -36.3125 C 66.125 -36.71875 66.734375 -35.953125 66.375 -34.046875 C 65.5625 -29.765625 66.125 -24.96875 66.125 -20.625 C 66.171875 -15.46875 66.28125 -10.3125 66.28125 -5.15625 C 66.28125 -3.875 66.21875 -3.875 66.21875 -2.578125 C 66.21875 -1.953125 66.734375 -1.234375 66.59375 -0.625 C 66.171875 1.078125 63.234375 0.109375 62.046875 0.046875 C 59.515625 -0.109375 56.9375 -0.046875 54.421875 0.15625 C 52.140625 0.359375 50.4375 -1.03125 48.640625 -2.21875 C 46.3125 -3.8125 44 -5.421875 41.625 -7.015625 C 33.015625 -12.890625 24.296875 -18.625 15.625 -24.453125 C 14.859375 -24.96875 13.203125 -27.796875 13.359375 -24.8125 C 13.5625 -20.890625 13.609375 -16.921875 13.609375 -13 C 13.671875 -9.328125 12.953125 -4.90625 13.875 -1.34375 C 14.1875 -0.203125 13.765625 0.203125 12.640625 0.15625 C 10.359375 0.109375 8 -0.265625 5.78125 0.265625 C 4.953125 0.40625 4.4375 0.265625 4.125 -0.109375 Z M 4.125 -0.109375 "/></g></g></g><g fill="#fcfdfe" fill-opacity="1"><g transform="translate(269.12857, 103.481951)"><g><path d="M 1.703125 -18 C 1.546875 -20.578125 2.171875 -23.265625 3.921875 -25.890625 C 8.25 -32.28125 16.40625 -35.078125 23.71875 -36.515625 C 31.71875 -38.109375 40.078125 -37.96875 47.921875 -36.203125 C 54.671875 -34.71875 61.375 -31.828125 65.703125 -26.5625 C 69.984375 -21.453125 70.25 -14.640625 66.125 -9.4375 C 63.953125 -6.65625 60.859375 -4.640625 57.71875 -3.046875 C 51.109375 0.15625 43.734375 1.4375 36.3125 1.703125 C 30.171875 1.90625 23.984375 1.4375 18.15625 -0.46875 C 10.625 -2.9375 2.265625 -10.0625 1.703125 -18 Z M 11.34375 -17.953125 C 11.546875 -13.40625 15.734375 -9.28125 20.265625 -7.484375 C 28.625 -4.125 38.84375 -3.25 47.453125 -6.234375 C 54.625 -8.765625 63.75 -17.234375 56.265625 -24.546875 C 54.5625 -26.203125 52.40625 -27.34375 50.234375 -28.265625 C 40.84375 -32.078125 30.015625 -31.875 20.578125 -28.375 C 17.890625 -27.390625 15.265625 -26.046875 13.515625 -23.875 C 11.859375 -21.921875 11.296875 -19.90625 11.34375 -17.953125 Z M 11.34375 -17.953125 "/></g></g></g><g fill="#32373b" fill-opacity="1"><g transform="translate(399.89287, 106.617627)"><g><path d="M 67.703125 -42.296875 C 67.578125 -42.71875 67.21875 -42.890625 66.375 -42.65625 C 64.5 -42.046875 62.5 -41.921875 60.625 -42.34375 C 59.828125 -42.53125 58.984375 -42.765625 58.140625 -42.59375 C 57.109375 -42.296875 56.453125 -41.265625 55.90625 -40.359375 C 52.453125 -34.546875 49 -28.796875 45.5625 -23.046875 C 43.921875 -20.328125 42.40625 -17.546875 40.84375 -14.765625 C 40.234375 -13.796875 36.171875 -5.75 35.21875 -7.015625 C 33.578125 -8.953125 32.734375 -11.25 31.40625 -13.4375 L 26.25 -22.140625 C 22.8125 -27.953125 19.421875 -33.8125 16.03125 -39.625 C 15.484375 -40.53125 14.890625 -41.4375 13.96875 -41.984375 C 13.125 -42.46875 12.09375 -42.46875 11.078125 -42.46875 C 9.015625 -42.46875 6.171875 -42.828125 4.171875 -42.296875 C 2.65625 -41.8125 5.328125 -38.53125 5.8125 -37.75 C 6.890625 -35.875 8.046875 -33.9375 9.140625 -32.0625 L 15.734375 -21 C 17.609375 -17.78125 19.421875 -14.515625 21.359375 -11.375 C 22.328125 -9.734375 23.359375 -8.171875 24.328125 -6.53125 C 25.109375 -5.203125 26.25 -4.109375 26.921875 -2.71875 C 27.828125 -0.96875 28.375 0.296875 30.546875 0.234375 L 41.078125 0.0625 C 44.40625 0 45.984375 -4.96875 47.5 -7.4375 C 49.734375 -11.25 52.03125 -15 54.265625 -18.8125 L 61.46875 -30.921875 C 62.921875 -33.328125 64.546875 -35.640625 65.9375 -38.046875 C 66.3125 -38.71875 67.875 -41.203125 67.703125 -42.296875 Z M 67.703125 -42.296875 "/></g></g></g><g fill="#32373b" fill-opacity="1"><g transform="translate(468.728407, 106.617627)"><g><path d="M 5.921875 -42.46875 C 5.984375 -42.53125 6.046875 -42.65625 6.171875 -42.71875 C 7.4375 -43.625 10.21875 -42.34375 11.671875 -42.34375 C 12.46875 -42.34375 13.3125 -42.234375 14.09375 -42.296875 C 15.25 -42.34375 16.703125 -43.3125 17.484375 -42.046875 C 18.203125 -40.78125 17.296875 -37.75 17.25 -36.296875 C 16.9375 -29.953125 17 -23.53125 17.125 -17.1875 L 17.296875 -7.625 C 17.296875 -6.046875 17.1875 -4.359375 17.359375 -2.84375 C 17.421875 -2.125 17.84375 -0.96875 17.421875 -0.234375 C 16.703125 0.96875 14.28125 0.359375 13.1875 0.234375 C 11.859375 0.0625 10.40625 -0.0625 9.078125 0.0625 C 8.109375 0.1875 6.359375 0.90625 5.875 -0.296875 C 5.625 -0.84375 5.75 -1.453125 5.8125 -2 C 6.46875 -7.015625 6.234375 -12.046875 6.109375 -17.0625 C 5.984375 -21 5.984375 -24.859375 5.984375 -28.796875 C 6.046875 -31.28125 6.296875 -33.765625 6.234375 -36.171875 C 6.234375 -37.578125 5.015625 -41.4375 5.921875 -42.46875 Z M 5.921875 -42.46875 "/></g></g></g><g fill="#32373b" fill-opacity="1"><g transform="translate(489.717433, 106.617627)"><g><path d="M 4 -3.03125 C 4.109375 -2.84375 4.359375 -2.71875 4.59375 -2.59375 C 12.21875 0.96875 20.9375 1.640625 29.34375 1.9375 C 38.78125 2.296875 48.453125 2.234375 57.359375 -0.96875 C 59.59375 -1.8125 61.890625 -2.90625 63.28125 -4.84375 C 64.25 -6.109375 64.734375 -7.6875 65.09375 -9.203125 C 65.515625 -10.890625 65.765625 -12.640625 65.453125 -14.40625 C 64.984375 -17.1875 62.921875 -19.546875 60.5 -21.046875 C 58.015625 -22.5 55.171875 -23.234375 52.390625 -23.65625 C 41.328125 -25.40625 29.890625 -23.78125 18.875 -25.890625 C 16.515625 -26.375 13.734375 -27.46875 13.4375 -29.890625 C 13.25 -31.28125 14.09375 -32.671875 15.25 -33.515625 C 16.390625 -34.359375 17.84375 -34.78125 19.234375 -35.09375 C 24.328125 -36.234375 29.578125 -36.609375 34.84375 -36.546875 C 37.453125 -36.546875 40.046875 -36.421875 42.65625 -36.171875 C 43.734375 -36.125 44.765625 -36.296875 45.796875 -36.125 C 46.890625 -35.9375 47.921875 -35.578125 48.9375 -35.265625 C 50.703125 -34.90625 52.390625 -34.421875 54.03125 -33.875 C 57.234375 -32.734375 60.3125 -31.15625 62.734375 -28.734375 C 62.734375 -31.703125 62.796875 -34.671875 62.859375 -37.625 C 62.859375 -38.109375 62.859375 -38.53125 62.671875 -38.96875 C 62.4375 -39.453125 61.890625 -39.6875 61.40625 -39.9375 C 53.84375 -43.5 45.1875 -43.984375 36.84375 -44.109375 C 28.984375 -44.21875 21 -43.984375 13.4375 -41.921875 C 10.109375 -41.015625 6.84375 -39.6875 4.53125 -37.09375 C 1.640625 -33.765625 1.09375 -28.5625 3.328125 -24.6875 C 4.96875 -21.84375 7.796875 -19.90625 10.828125 -18.8125 C 13.921875 -17.671875 17.1875 -17.359375 20.453125 -17.125 C 29.15625 -16.578125 37.9375 -16.875 46.703125 -16.21875 C 48.453125 -16.03125 50.328125 -15.84375 51.84375 -14.9375 C 53.421875 -14.03125 54.578125 -12.21875 54.203125 -10.46875 C 53.65625 -8.28125 51.1875 -7.265625 49 -6.78125 C 44.828125 -5.8125 40.46875 -5.625 36.171875 -5.5 C 30.484375 -5.4375 24.75 -5.5625 19.125 -6.65625 C 13.484375 -7.75 7.984375 -9.921875 3.515625 -13.484375 C 3.390625 -10.21875 3.453125 -7.015625 3.6875 -3.8125 C 3.75 -3.5625 3.75 -3.328125 3.875 -3.140625 C 3.9375 -3.078125 3.9375 -3.03125 4 -3.03125 Z M 4 -3.03125 "/></g></g></g><g fill="#32373b" fill-opacity="1"><g transform="translate(555.226103, 106.617627)"><g><path d="M 6.046875 0 C 5.875 -0.296875 5.8125 -0.671875 5.75 -0.96875 C 5.390625 -3.328125 6.046875 -5.5625 6.046875 -7.921875 C 6.109375 -11.5 6.109375 -15.0625 6.109375 -18.6875 C 6.109375 -23.84375 6.109375 -28.984375 6.046875 -34.125 C 6.046875 -36.296875 4.53125 -42.46875 7.6875 -42.46875 L 65.578125 -42.296875 C 66.375 -42.296875 67.21875 -42.234375 67.703125 -41.625 C 68 -41.203125 68.0625 -40.65625 68.0625 -40.109375 L 68.25 -35.8125 C 68.25 -35.09375 68.25 -34.25 67.640625 -33.765625 C 66.546875 -32.84375 64.859375 -33.21875 63.578125 -33.328125 C 61.828125 -33.453125 60.015625 -33.390625 58.203125 -33.390625 C 53.90625 -33.453125 49.546875 -33.453125 45.25 -33.515625 C 36.65625 -33.578125 28.125 -33.578125 19.609375 -33.640625 C 15.84375 -33.640625 16.9375 -29.640625 16.875 -26.796875 C 16.8125 -25.890625 17.25 -24.8125 18.15625 -24.625 C 19.484375 -24.328125 22.078125 -24.859375 23.65625 -24.859375 C 31.640625 -24.859375 39.625 -24.921875 47.609375 -24.921875 C 51.609375 -24.984375 55.59375 -24.984375 59.59375 -25.046875 C 61.890625 -25.046875 68.609375 -26.5625 68.1875 -22.6875 L 67.640625 -17.671875 C 67.640625 -17.359375 67.578125 -17.0625 67.390625 -16.875 C 67.15625 -16.640625 66.796875 -16.640625 66.484375 -16.640625 C 52.21875 -16.578125 37.875 -16.578125 23.65625 -16.578125 C 22.203125 -16.578125 21 -16.515625 19.609375 -16.9375 C 18.6875 -17.1875 17.546875 -17.25 17.0625 -16.453125 C 16.328125 -15.125 16.703125 -13.25 16.875 -11.859375 C 17.0625 -10.28125 16.875 -8.71875 18.875 -8.71875 C 34.484375 -8.765625 50.09375 -8.828125 65.703125 -8.953125 C 68.78125 -8.953125 68.0625 -7.796875 68.0625 -5.5625 C 68 -4.109375 69.03125 -1.75 68.1875 -0.421875 C 67.28125 1.15625 66.0625 -0.0625 64.734375 -0.0625 C 63.21875 -0.0625 63.21875 -0.125 61.65625 -0.125 C 44.828125 -0.125 28.015625 0.296875 11.1875 -0.0625 C 10.34375 -0.125 9.4375 -0.125 8.59375 0.125 C 7.796875 0.296875 6.78125 0.71875 6.171875 0.125 Z M 6.046875 0 "/></g></g></g></svg>